<?xml version="1.0" encoding="UTF-8" standalone="no"?>
<!-- Created with Inkscape (http://www.inkscape.org/) -->
<svg xmlns:inkscape="http://www.inkscape.org/namespaces/inkscape" xmlns:rdf="http://www.w3.org/1999/02/22-rdf-syntax-ns#" xmlns="http://www.w3.org/2000/svg" xmlns:xlink="http://www.w3.org/1999/xlink" xmlns:ns1="http://sozi.baierouge.fr" xmlns:cc="http://creativecommons.org/ns#" xmlns:sodipodi="http://sodipodi.sourceforge.net/DTD/sodipodi-0.dtd" xmlns:dc="http://purl.org/dc/elements/1.1/" id="svg2" xml:space="preserve" viewBox="0 0 178 95.35" version="1.1" inkscape:version="0.91 r13725">
  <defs id="defs6">
    <clipPath id="clipPath18">
      <path id="path20" d="m0-0.71984h143v47h-143v-47z" inkscape:connector-curvature="0"/>
    </clipPath>
    <mask id="mask22">
      <g id="g24">
        <g id="g26" clip-path="url(#clipPath18)">
          <path id="path28" style="fill:#000000;fill-opacity:.62890" d="m0-0.71984h143v47h-143v-47z" inkscape:connector-curvature="0"/>
        </g>
      </g>
    </mask>
    <clipPath id="clipPath34">
      <path id="path36" d="m0-0.71984h143v47h-143v-47z" inkscape:connector-curvature="0"/>
    </clipPath>
    <clipPath id="clipPath38">
      <path id="path40" d="m0 0h143v47h-143v-47z" inkscape:connector-curvature="0"/>
    </clipPath>
    <clipPath id="clipPath42">
      <path id="path44" d="m121.56 39.398c13.894-4.425 20.839-9.773 20.839-16.039 0-6.238-6.945-11.574-20.839-16-13.92-4.425-30.705-6.64-50.361-6.64-19.679 0-36.465 2.215-50.359 6.64-13.895 4.426-20.84 9.762-20.84 16 0 6.266 6.945 11.614 20.84 16.039 13.894 4.43 30.68 6.641 50.359 6.641 19.656 0 36.442-2.211 50.36-6.641z" inkscape:connector-curvature="0"/>
    </clipPath>
    <clipPath id="clipPath46">
      <path id="path48" d="m0.0000017643-119.04h178.75v180.49h-178.75v-180.49z" inkscape:connector-curvature="0"/>
    </clipPath>
    <radialGradient id="radialGradient50" gradientUnits="userSpaceOnUse" cy="-28.325" cx="89" r="80.491">
      <stop id="stop52" style="stop-color:#ffffff;stop-opacity:.61961" offset="0"/>
      <stop id="stop54" style="stop-color:#ffffff;stop-opacity:0" offset="1"/>
    </radialGradient>
    <mask id="mask56">
      <g id="g58">
        <g id="g60" clip-path="url(#clipPath46)">
          <path id="path62" style="fill:url(#radialGradient50)" d="m0.0000017643-119.04h178.75v180.49h-178.75v-180.49z" inkscape:connector-curvature="0"/>
        </g>
      </g>
    </mask>
    <radialGradient id="radialGradient64" gradientUnits="userSpaceOnUse" cy="-28.325" cx="89" r="80.491">
      <stop id="stop66" style="stop-color:#000000" offset="0"/>
      <stop id="stop68" style="stop-color:#000000" offset="1"/>
    </radialGradient>
    <clipPath id="clipPath100">
      <path id="path102" d="m16 5.2802h108v33h-108v-33z" inkscape:connector-curvature="0"/>
    </clipPath>
    <mask id="mask104">
      <g id="g106">
        <g id="g108" clip-path="url(#clipPath100)">
          <path id="path110" style="fill:#000000;fill-opacity:.14060" d="m16 5.2802h108v33h-108v-33z" inkscape:connector-curvature="0"/>
        </g>
      </g>
    </mask>
    <clipPath id="clipPath116">
      <path id="path118" d="m16 5.2802h108v33h-108v-33z" inkscape:connector-curvature="0"/>
    </clipPath>
    <clipPath id="clipPath120">
      <path id="path122" d="m16 6h108v33h-108v-33z" inkscape:connector-curvature="0"/>
    </clipPath>
    <radialGradient id="radialGradient168" gradientUnits="userSpaceOnUse" cy="117.19" cx="-56.523" gradientTransform="matrix(-.06776 .79712 -.79712 -.06776 186.82 92.153)" r="23.773">
      <stop id="stop170" style="stop-color:#74debe" offset="0"/>
      <stop id="stop172" style="stop-color:#78e0c0" offset=".2353"/>
      <stop id="stop176" style="stop-color:#84e5c8" offset="0.451"/>
      <stop id="stop178" style="stop-color:#99edd3" offset=".6627"/>
      <stop id="stop180" style="stop-color:#b5f9e4" offset=".87840"/>
      <stop id="stop182" style="stop-color:#c4ffed" offset=".97650"/>
      <stop id="stop184" style="stop-color:#c4ffed" offset="1"/>
    </radialGradient>
    <radialGradient id="radialGradient198" gradientUnits="userSpaceOnUse" cy="61.982" cx="-41.844" gradientTransform="matrix(-.06768 .79712 -.79712 -.06768 98.816 84.671)" r="23.936">
      <stop id="stop200" style="stop-color:#74debe" offset="0"/>
      <stop id="stop202" style="stop-color:#78e0c0" offset=".2353"/>
      <stop id="stop206" style="stop-color:#84e5c8" offset="0.451"/>
      <stop id="stop208" style="stop-color:#99edd3" offset=".6627"/>
      <stop id="stop210" style="stop-color:#b5f9e4" offset=".87840"/>
      <stop id="stop212" style="stop-color:#c4ffed" offset=".97650"/>
      <stop id="stop214" style="stop-color:#c4ffed" offset="1"/>
    </radialGradient>
    <radialGradient id="radialGradient228" gradientUnits="userSpaceOnUse" cy="71.19" cx="-96.104" gradientTransform="matrix(-.06752 .79712 -.79712 -.06752 113.5 85.897)" r="35.088">
      <stop id="stop230" style="stop-color:#74debe" offset="0"/>
      <stop id="stop232" style="stop-color:#78e0c0" offset=".2353"/>
      <stop id="stop236" style="stop-color:#84e5c8" offset="0.451"/>
      <stop id="stop238" style="stop-color:#99edd3" offset=".6627"/>
      <stop id="stop240" style="stop-color:#b5f9e4" offset=".87840"/>
      <stop id="stop242" style="stop-color:#c4ffed" offset=".97650"/>
      <stop id="stop244" style="stop-color:#c4ffed" offset="1"/>
    </radialGradient>
    <clipPath id="clipPath254">
      <path id="path256" d="m35 49.28h29v16h-29v-16z" inkscape:connector-curvature="0"/>
    </clipPath>
    <mask id="mask258">
      <g id="g260">
        <g id="g262" clip-path="url(#clipPath254)">
          <path id="path264" style="fill:#000000;fill-opacity:.42970" d="m35 49.28h29v16h-29v-16z" inkscape:connector-curvature="0"/>
        </g>
      </g>
    </mask>
    <clipPath id="clipPath270">
      <path id="path272" d="m35 49.28h29v16h-29v-16z" inkscape:connector-curvature="0"/>
    </clipPath>
    <clipPath id="clipPath274">
      <path id="path276" d="m35 50h29v16h-29v-16z" inkscape:connector-curvature="0"/>
    </clipPath>
    <clipPath id="clipPath298">
      <path id="path300" d="m38 8.2802h43v20h-43v-20z" inkscape:connector-curvature="0"/>
    </clipPath>
    <mask id="mask302">
      <g id="g304">
        <g id="g306" clip-path="url(#clipPath298)">
          <path id="path308" style="fill:#000000;fill-opacity:.42970" d="m38 8.2802h43v20h-43v-20z" inkscape:connector-curvature="0"/>
        </g>
      </g>
    </mask>
    <clipPath id="clipPath314">
      <path id="path316" d="m38 8.2802h43v20h-43v-20z" inkscape:connector-curvature="0"/>
    </clipPath>
    <clipPath id="clipPath318">
      <path id="path320" d="m38 9h43v20h-43v-20z" inkscape:connector-curvature="0"/>
    </clipPath>
    <clipPath id="clipPath342">
      <path id="path344" d="m84 43.28h25v21h-25v-21z" inkscape:connector-curvature="0"/>
    </clipPath>
    <mask id="mask346">
      <g id="g348">
        <g id="g350" clip-path="url(#clipPath342)">
          <path id="path352" style="fill:#000000;fill-opacity:.42970" d="m84 43.28h25v21h-25v-21z" inkscape:connector-curvature="0"/>
        </g>
      </g>
    </mask>
    <clipPath id="clipPath358">
      <path id="path360" d="m84 43.28h25v21h-25v-21z" inkscape:connector-curvature="0"/>
    </clipPath>
    <clipPath id="clipPath362">
      <path id="path364" d="m84 44h25v21h-25v-21z" inkscape:connector-curvature="0"/>
    </clipPath>
  </defs>
  <g id="g10" transform="matrix(1.25 0 0 -1.25 0 95.35)">
    <g id="g12">
      <g id="g14">
        <g id="g30" mask="url(#mask22)">
          <g id="g70">
            <g id="g72" clip-path="url(#clipPath34)">
              <g id="g74" transform="translate(0 -.71984)">
                <g id="g78">
                  <g id="g80" clip-path="url(#clipPath38)">
                    <g id="g82">
                      <g id="g84">
                        <g id="g86" clip-path="url(#clipPath42)">
                          <g id="g88" transform="matrix(.8 0 0 -.2604 -.0000014115 16.003)">
                            <g id="g92" mask="url(#mask56)">
                              <path id="path94" style="fill-rule:evenodd;fill:url(#radialGradient64)" d="m121.56 39.398c13.894-4.425 20.839-9.773 20.839-16.039 0-6.238-6.945-11.574-20.839-16-13.92-4.425-30.705-6.64-50.361-6.64-19.679 0-36.465 2.215-50.359 6.64-13.895 4.426-20.84 9.762-20.84 16 0 6.266 6.945 11.614 20.84 16.039 13.894 4.43 30.68 6.641 50.359 6.641 19.656 0 36.442-2.211 50.36-6.641z" inkscape:connector-curvature="0"/>
                            </g>
                          </g>
                        </g>
                      </g>
                    </g>
                  </g>
                </g>
              </g>
            </g>
          </g>
        </g>
      </g>
      <g id="g96">
        <g id="g112" mask="url(#mask104)">
          <g id="g124">
            <g id="g126" clip-path="url(#clipPath116)">
              <g id="g128" transform="translate(0 -.71984)">
                <g id="g132">
                  <g id="g134" clip-path="url(#clipPath120)">
                    <g id="g136">
                      <path id="path138" style="fill-rule:evenodd;fill:#000000" d="m122.48 31.52c0.481-0.801 0.801-1.559 0.961-2.282l-0.402-1.476c-0.16-1.067-0.027-1.817 0.402-2.242 0.454-0.454 0.079-0.934-1.121-1.442-1.547-0.558-2.586-0.973-3.121-1.238-0.558-0.293-1.265-0.735-2.121-1.32-1.144-0.747-2.133-1.375-2.957-1.879-0.19-0.106-0.89-0.653-2.12-1.641-0.48-0.375-1.465-0.719-2.961-1.039-1.465-0.32-2.184-0.668-2.16-1.039 0.109-0.934 0.121-1.469 0.043-1.602-0.297-0.586-1.375-1.039-3.242-1.359-2.692-0.43-4.641-0.867-5.84-1.32-2.453-0.934-4.028-1.496-4.719-1.68-1.176-0.293-2.613-0.441-4.32-0.441-1.602 0-3.453-0.122-5.563-0.36-2.504-0.32-4.476-0.558-5.918-0.719-3.121-0.48-5.48-0.855-7.082-1.121-2.933-0.425-5.105-0.586-6.519-0.48-1.332 0.105-2.559 0.547-3.68 1.32-2.027 1.36-3.465 2.254-4.32 2.68-1.758 0.879-3.797 1.426-6.117 1.64-2.668 0.133-4.723 0.293-6.161 0.481-1.519 0.184-2.722 0.785-3.601 1.801-1.121 1.277-2.32 2.199-3.602 2.758-1.703 0.746-3.277 1.027-4.718 0.839-1.282-0.32-2.188-0.425-2.719-0.32-0.668 0.106-1.496 0.535-2.481 1.281-1.015 0.825-1.707 1.375-2.082 1.641-0.426 0.32-1.093 0.598-2 0.84l-1.199 0.238-4.238 3.481c1.226 1.414 2.105 2.121 2.64 2.121 0.293 0 0.774 0.504 1.438 1.519 0.883 1.36 1.562 2.281 2.043 2.762 0.531 0.531 1.957 1.266 4.277 2.199 2.668 1.117 4.613 2.067 5.84 2.84 1.656 1.066 3.656 1.519 6 1.359 1.762-0.105 6.082-0.64 12.961-1.601 6.16-0.746 9.934-1.117 11.32-1.117 0.399 0 4.707 0.371 12.918 1.117 7.016 0.613 11.977 0.933 14.883 0.961 1.387 0 5.68-0.149 12.879-0.442 5.254-0.211 8.867-0.586 10.84-1.117 1.172-0.32 2.535-0.84 4.082-1.562 1.437-0.426 2.625-1.438 3.558-3.039z" inkscape:connector-curvature="0"/>
                    </g>
                  </g>
                </g>
              </g>
            </g>
          </g>
        </g>
      </g>
      <path id="path140" style="fill-rule:evenodd;fill:#787049" d="m110.92 42.12c0.664-4.105 2.289-7.961 4.879-11.559 1.277-1.789 2.492-3.175 3.64-4.16l-16.52-10.121c-5.842-3.652-12.775-5.707-20.799-6.16-0.988-0.051-4.48-0.348-10.48-0.879-2.297-0.187-4.137-0.066-5.52 0.359-1.094 0.348-2.375 0.801-3.844 1.36-1.465 0.586-2.945 1.105-4.437 1.558-1.414 0.454-3.574 0.989-6.481 1.602-2.695 0.559-4.535 1.012-5.519 1.359-3.016 1.067-5.227 2.309-6.641 3.719-0.613 0.613-1.922 1.043-3.922 1.281-2.664 0.321-4.382 0.602-5.156 0.84-1.336 0.453-3.148 1.653-5.441 3.602l-3.078 2.801c1.226 0.851 2.265 1.625 3.117 2.32 1.601 1.359 2.508 2.547 2.722 3.558 0.184 1.415 0.387 2.493 0.598 3.239 0.32 1.254 1.106 2.668 2.359 4.242 1.602 2.055 2.762 3.719 3.481 5 0.883 1.574 1.32 2.918 1.32 4.039 0 0.773 0.309 2.559 0.922 5.359 0.613 2.829 0.918 4.696 0.918 5.602 0 1.039 0.883 2.504 2.641 4.398 2.054 2.215 3.132 3.414 3.242 3.602 0.531 1.066 3.023 3.465 7.476 7.199l6.922-1.84c5.149-1.574 9.055-3.187 11.719-4.84 3.199-2 5.469-3.214 6.801-3.64 1.332-0.399 2.801-0.348 4.398 0.16 1.071 0.348 2.789 1.094 5.16 2.238 2.11 0.75 3.774 0.629 5-0.359 1.149-0.957 2.43-2.52 3.84-4.68 2.828-4.265 4.387-6.613 4.684-7.039 0.824-1.172 1.933-2.238 3.316-3.199 0.801-0.535 2-1.293 3.602-2.281 2.773-1.946 4.469-4.84 5.082-8.68z" inkscape:connector-curvature="0"/>
      <path id="path142" style="fill-rule:evenodd;fill:#877b54" d="m102.96 52.6-0.039-1.16c-1.602-0.988-3.309-2.121-5.121-3.398-3.653-2.563-6.039-4.629-7.16-6.203-1.469-2.051-2.829-4.453-4.082-7.199-1.414-3.094-2.184-5.575-2.321-7.438-0.105-1.684-0.664-2.684-1.679-3l-1.52 0.039 1.082 1.598c0.453 0.668 0.348 1.988-0.32 3.961-0.852 2.16-1.375 3.601-1.559 4.32-0.16 0.691-0.242 2.066-0.242 4.121 0 2.051-0.094 3.438-0.277 4.16-0.161 0.637-0.934 1.426-2.321 2.36-1.601 1.066-2.789 2.32-3.562 3.757-0.852 1.602-1.945 2.75-3.278 3.442-2.027 1.039-3.066 1.586-3.121 1.64-0.851 0.747-2.16 1.575-3.921 2.481-1.625 0.852-2.797 1.359-3.52 1.519-1.598 0.184-3.027 0.399-4.277 0.641-2.403 0.449-4.094 1.117-5.082 2-0.934 0.852-1.895 1.399-2.879 1.637-1.867 0.48-3.039 0.828-3.52 1.043-0.906 0.371-1.933 0.519-3.082 0.437-0.531-0.023-1.691-0.183-3.48-0.48 0.508 0.855 1.468 2.027 2.882 3.523 1.383 1.41 2.172 2.305 2.36 2.68 0.531 1.066 3.023 3.465 7.48 7.199l6.918-1.84c5.149-1.574 9.055-3.187 11.719-4.84 3.203-2 5.469-3.214 6.801-3.64 1.336-0.402 2.801-0.348 4.402 0.16 1.067 0.348 2.785 1.094 5.16 2.238 2.106 0.746 3.774 0.629 5-0.359 1.145-0.961 2.426-2.52 3.84-4.68 2.824-4.265 4.387-6.613 4.68-7.039 0.957-1.359 2.305-2.586 4.039-3.68z" inkscape:connector-curvature="0"/>
      <path id="path144" style="fill-rule:evenodd;fill:#615a3b" d="m100.52 54.44c1.308-1.226 3.359-2.652 6.16-4.281 2.242-1.812 3.652-4.492 4.242-8.039 0.664-4.105 2.289-7.961 4.879-11.559 1.277-1.789 2.492-3.175 3.64-4.16l-16.52-10.121c-5.842-3.652-12.775-5.707-20.799-6.16-0.988-0.051-4.48-0.348-10.48-0.879-2.297-0.187-4.137-0.066-5.52 0.359-1.094 0.348-2.375 0.801-3.844 1.36-1.465 0.586-2.945 1.105-4.437 1.558-1.414 0.454-3.574 0.989-6.481 1.602-2.695 0.559-4.535 1.012-5.519 1.359-3.016 1.067-5.227 2.309-6.641 3.719-0.613 0.613-1.922 1.043-3.922 1.281-2.664 0.321-4.382 0.602-5.156 0.84-1.336 0.453-3.148 1.653-5.441 3.602l-3.078 2.801c1.039-0.403 2.023-0.586 2.957-0.563 0.535 0.027 1.679 0.215 3.441 0.563 0.105 0.023 1.48 0.132 4.121 0.32 0.879 0.078 1.641 0.598 2.277 1.558 0.481 0.719 0.801 1.399 0.961 2.04 0.106 0.453 0.496 1.015 1.161 1.679 2.32 2.321 3.828 3.563 4.519 3.723 0.723 0.183 1.441 0.449 2.16 0.797l-0.918-3.078c-0.64-2.215-0.961-3.758-0.961-4.641 0-1.039 0.16-1.984 0.481-2.84 0.293-0.828 0.84-1.84 1.64-3.039 0.934-1.414 1.68-2.336 2.239-2.762 0.879-0.691 2.359-1.277 4.441-1.757 2.426-0.586 4.586-0.883 6.481-0.883 2.105 0.027 3.41 0.414 3.918 1.16 0.746 1.094 1.292 1.855 1.64 2.281 0.613 0.719 1.227 1.199 1.84 1.442 0.348 0.132 1.105 0.281 2.281 0.437 1.012 0.133 1.758 0.348 2.239 0.641 0.988 0.613 2.082 1.121 3.281 1.519 1.597 0.535 2.64 0.563 3.121 0.082 1.066-1.066 1.785-1.734 2.156-2 1.016-0.718 1.801-0.855 2.36-0.398 0.453 0.344 1.203 0.437 2.242 0.277 0.828 0.133 1.242 1.11 1.242 2.922 0 0.133-0.137 2.691-0.402 7.68-0.161 2.984-0.028 4.691 0.402 5.121 0.426 0.398 0.531 1.383 0.316 2.957-0.265 1.84-0.371 2.894-0.316 3.16 0.105 0.453 0.758 0.773 1.957 0.961 1.547 0.238 2.668 0.625 3.359 1.16 0.856 0.641 1.149 2.332 0.883 5.078-0.269 2.934-0.375 4.442-0.32 4.524 0.531 0.797 1.144 1.425 1.84 1.879 1.093 0.691 1.984 0.519 2.679-0.52 0.668-1.043 3.067-2.629 7.2-4.762z" inkscape:connector-curvature="0"/>
      <path id="path146" style="fill-rule:evenodd;fill:#524c32" d="m89.84 24.081c1.332-1.039 2.32-1.602 2.961-1.68 2.801-0.375 4.48-0.375 5.039 0 0.265 0.157 0.652 0.625 1.16 1.399 0.559 0.906 1.066 1.586 1.52 2.039 0.453 0.453 1.242 1.363 2.359 2.719 1.176 1.175 2.426 1.867 3.762 2.082 1.066 0.187 1.797 0.48 2.199 0.878 0.133 0.137 0.465 0.028 1-0.316 0.746-0.508 1.84-1.094 3.281-1.762 1.758-0.824 3.531-1.519 5.317-2.082 0.402-0.425 0.734-0.746 1-0.957l-16.52-10.121c-5.842-3.652-12.775-5.707-20.799-6.16-0.988-0.051-4.484-0.348-10.484-0.879-2.293-0.187-4.133-0.066-5.52 0.359-1.094 0.348-2.371 0.801-3.84 1.36-1.465 0.586-2.945 1.105-4.437 1.558-1.414 0.454-3.574 0.989-6.481 1.602-2.695 0.559-4.535 1.012-5.519 1.359-3.016 1.067-5.227 2.309-6.641 3.719-0.613 0.613-1.922 1.043-3.922 1.281-2.664 0.321-4.386 0.602-5.16 0.84-0.824 0.266-1.906 0.883-3.238 1.84 1.945-0.586 3.266-0.918 3.961-1 1.144-0.16 2.144 0 3 0.481 1.598 0.906 3.027 1.8 4.277 2.679l2.844-3.918c2.105-2.668 3.652-4.121 4.637-4.359 0.8-0.188 3.773-0.988 8.922-2.402 5.066-1.2 8.304-1.465 9.718-0.801 1.442 0.668 2.453 1.535 3.039 2.601 0.297 0.532 0.442 1 0.442 1.399l4 1.601 3.719-1.32 1.32-1.801c1.281-1.144 2.976-1.613 5.082-1.398 1.707 0.16 3.371 0.215 5 0.16 0.824 0.078 1.293 0.734 1.398 1.961 0.188 1.973 0.282 4.293 0.282 6.957 0 0.773 0.441 0.801 1.32 0.082z" inkscape:connector-curvature="0"/>
      <path id="path148" style="fill-rule:evenodd;fill:#877b54" d="m34.398 42.12 1.321 0.84c1.148 0.453 2.386 0.348 3.722-0.32 2.133-1.067 3.731-2.133 4.797-3.2l-1.039-1.601c-0.664 0.054-1.398 0.176-2.199 0.363-1.602 0.426-2.734 1.023-3.398 1.797-0.668 0.773-1.403 1.359-2.204 1.762l-1 0.359z" inkscape:connector-curvature="0"/>
      <path id="path150" style="fill-rule:evenodd;fill:#877b54" d="m66.922 43.999c0.797-0.691 1.703-1.719 2.719-3.078 0.187-0.266 0.879-1.293 2.082-3.082 0.449-0.664 0.679-1.438 0.679-2.321 0-0.449-0.054-0.824-0.16-1.117-3.015 2.133-5.226 4-6.64 5.602-0.829 0.906-1.895 1.492-3.2 1.758-2.187 0.425-3.707 0.812-4.562 1.16-1.598 0.64-3.078 0.652-4.438 0.039-1.656-1.012-3.187-1.735-4.601-2.16-1.785-0.559-1.613 0.293 0.519 2.562 1.067 1.117 2.309 2.305 3.719 3.559l3.082 0.398c2.215 0.27 3.774 0.403 4.68 0.403s1.961-0.426 3.16-1.282c0.32-0.215 1.305-1.027 2.961-2.441z" inkscape:connector-curvature="0"/>
      <path id="path152" style="fill-rule:evenodd;fill:#615a3b" d="m50.238 58.319c1.282 0.293 3.11 0.496 5.481 0.602 3.734 0.187 6.496 0.054 8.281-0.403l0.801-2.519c-1.442-0.719-2.774-1.078-4-1.078-0.696 0-1.36-0.094-2-0.281-0.879-0.266-1.547-0.438-2-0.52-0.801-0.105-1.613-0.441-2.442-1-0.851-0.668-1.464-1.133-1.839-1.398-0.348-0.27-0.758-0.723-1.239-1.364-0.48-0.664-0.961-1.183-1.441-1.558-0.559-0.453-1.145-0.664-1.762-0.641-0.773 0.16-1.426 0.281-1.957 0.359-0.988 0.137-1.707 0.254-2.16 0.364-0.801 0.133-1.586 0.371-2.359 0.718-0.774 0.321-1.907 0.508-3.403 0.559l-3-0.039 0.52 1.762 4.043 2.32c2.984 1.625 5.199 2.625 6.636 3 1.149 0.293 2.43 0.664 3.84 1.117z" inkscape:connector-curvature="0"/>
      <path id="path154" style="fill-rule:evenodd;fill:#524c32" d="m72.238 24.8 1.801-2.2c1.387-1.601 2.574-2.734 3.563-3.398 1.597-1.07 3.546-2.137 5.839-3.203l0.278-3.719c-0.934-0.133-2.012-0.199-3.239-0.199-2.453 0-4.402 0.332-5.839 1-1.442 0.664-3.829 2.012-7.161 4.039l-4.562 2.883-2.918 10.398 10.32 0.879c0.719-0.187 1.188-0.84 1.399-1.961 0.347-1.758 0.519-3.265 0.519-4.519z" inkscape:connector-curvature="0"/>
      <path id="path156" style="fill-rule:evenodd;fill:#524c32" d="m101.8 52.8c1.972-0.985 3.508-1.879 4.597-2.68 0.696-0.535 1.762-1.867 3.204-4l-0.801-4.238c-1.602-0.535-3.028-0.801-4.281-0.801-2.133 0-4.532 0.078-7.2 0.238-1.652 0.106-3.082 0.106-4.281 0l-1.32-0.238-5.078 1.039c-1.227 2.508-2.11 4.465-2.641 5.879-0.32 0.883-0.949 1.988-1.879 3.32l-1.32 1.762 5.797 0.918c4.16 0.613 7.027 0.922 8.601 0.922 1.602 0 3.801-0.707 6.602-2.121z" inkscape:connector-curvature="0"/>
      <g id="g158">
        <g id="g160">
          <g id="g166">
            <path id="path186" style="fill-rule:evenodd;fill:url(#radialGradient168)" d="m107.24 44.319c-0.398-0.265-1.172-0.371-2.316-0.32-1.602 0.082-4.043 0.121-7.32 0.121-1.735 0-3.563-0.105-5.481-0.32l-2.4-0.321-1.485 2.121c-2.398 2.852-3.863 4.625-4.398 5.321-0.293 0.398-0.867 0.84-1.719 1.32-0.828 0.481-1.266 0.758-1.32 0.84-0.106 0.16-0.121 0.691-0.039 1.598l0.16 1.32 2.918 1.883c0.269 0.797 0.496 1.773 0.683 2.918 0.106 0.718 0.211 1.652 0.317 2.8l0.082 1.481 3.199 1.598c1.414 0.613 2.574 1.015 3.481 1.203l1.839-2.282 2.961-1.878 0.239-3.043 1.48-2.68c0.188-0.453 1.652-1.613 4.402-3.481l0.879-0.519c0.746-0.453 1.481-0.984 2.2-1.598 1.148-0.988 2.121-2.148 2.921-3.48l-0.281-1c-0.187-0.774-0.32-1.453-0.402-2.039-0.051-0.774-0.254-1.297-0.598-1.563h-0.004z" inkscape:connector-curvature="0"/>
          </g>
        </g>
      </g>
      <g id="g188">
        <g id="g190">
          <g id="g196">
            <path id="path216" style="fill-rule:evenodd;fill:url(#radialGradient198)" d="m51.441 65.319c2.133-0.078 3.957-0.344 5.481-0.801l1.359-1.238c1.012-0.961 1.797-1.746 2.36-2.359 0.906-0.961 2.027-1.762 3.359-2.403l-1.879-2.117c-1.519-0.187-3.562-0.32-6.121-0.402-1.625-0.051-2.867-0.52-3.719-1.399l-0.84-1.281-3.839-2.519c-0.961-0.614-1.895-0.746-2.801-0.399l-1.082 0.68c-1.52 0.266-2.891 0.531-4.117 0.801-0.774 0.16-1.657 0.211-2.641 0.16l-1.242-0.16c-0.078 2.133-0.25 4.078-0.52 5.84-0.16 1.117-0.238 2.144-0.238 3.078l0.078 1.082c0.906 0.531 1.84 1.465 2.801 2.797 0.613 0.828 1.558 1.562 2.84 2.203 0.64 0.32 1.215 0.558 1.718 0.718l3.321-1.082c2.48-0.746 4.386-1.144 5.722-1.199z" inkscape:connector-curvature="0"/>
          </g>
        </g>
      </g>
      <g id="g218">
        <g id="g220">
          <g id="g226">
            <path id="path246" style="fill-rule:evenodd;fill:url(#radialGradient228)" d="m65 31.042c0.32-0.375 0.734-0.723 1.238-1.043 1.282-0.852 2.043-1.371 2.282-1.559 0.906-0.668 1.402-1.172 1.48-1.519 0.078-0.535 0.559-2.309 1.441-5.321l1.36-0.96c1.172-0.797 2.371-1.586 3.597-2.36l4.122-2.68-0.68-2.8c-0.106-0.348-0.094-0.891 0.039-1.641 0.082-0.371 0.16-0.719 0.242-1.039-1.867-0.16-4.359-0.465-7.48-0.918-1.922-0.293-3.321-0.441-4.203-0.441l-0.719 0.039-14.281 4.8c-1.411 0.348-3.946 0.973-7.598 1.879-2.266 0.563-4.188 1.414-5.762 2.563l-1.68 1.558-0.558 3.321 1.601 1.199c1.067 0.801 1.918 1.828 2.559 3.082l4.238 1.481c0.641 0.558 1.336 1.16 2.082 1.796 1.465 1.254 2.426 2.028 2.879 2.321 0.266 0.187 1.602 0.043 4-0.442 2.348-0.449 3.762-0.437 4.242 0.043 0.293 0.293 1.239 0.227 2.84-0.199 0.824-0.215 1.614-0.453 2.36-0.723l0.359-0.437z" inkscape:connector-curvature="0"/>
          </g>
        </g>
      </g>
      <path id="path248" style="fill-rule:evenodd;fill:#d1fff1" d="m98.199 57.882c-0.265-0.989-0.398-1.723-0.398-2.203 0-0.746-0.668-2.039-2-3.879l-2-2.52c-0.563 0.535-1.149 1.172-1.762 1.922-1.199 1.492-1.879 2.785-2.039 3.879-0.133 0.801-0.105 2.227 0.078 4.277 0.16 1.895 0.137 3.27-0.078 4.121-0.32 1.227-1.922 1.813-4.801 1.762 0.906 0.504 1.879 0.984 2.922 1.438 1.414 0.613 2.57 1.015 3.481 1.203l1.839-2.282 2.957-1.878 0.243-3.043 1.48-2.68 0.078-0.117z" inkscape:connector-curvature="0"/>
      <g id="g250">
        <g id="g266" mask="url(#mask258)">
          <g id="g278">
            <g id="g280" clip-path="url(#clipPath270)">
              <g id="g282" transform="translate(0 -.71984)">
                <g id="g286">
                  <g id="g288" clip-path="url(#clipPath274)">
                    <g id="g290">
                      <path id="path292" style="fill-rule:evenodd;fill:#147352" d="m60.641 61.641c0.906-0.961 2.027-1.762 3.359-2.403l-1.879-2.117c-1.519-0.187-3.562-0.32-6.121-0.402-1.625-0.051-2.867-0.52-3.719-1.399-0.453-0.425-0.734-0.855-0.84-1.281l-3.839-2.519c-0.961-0.614-1.895-0.747-2.801-0.399l-1.082 0.68-4.117 0.801c-1.254 0.265-2.547 0.265-3.883 0l-0.239 3.199 1.84-0.281c2.399-0.348 4.399-0.442 6-0.282 1.254 0.989 2.282 1.883 3.078 2.684 0.801 0.797 1.204 1.957 1.204 3.476l2.519 0.801 0.68 2 1.558 0.602c1.36 0.371 2.801 0.547 4.321 0.519l0.242-0.082 1.359-1.238c1.012-0.961 1.797-1.746 2.36-2.359z" inkscape:connector-curvature="0"/>
                    </g>
                  </g>
                </g>
              </g>
            </g>
          </g>
        </g>
      </g>
      <g id="g294">
        <g id="g310" mask="url(#mask302)">
          <g id="g322">
            <g id="g324" clip-path="url(#clipPath314)">
              <g id="g326" transform="translate(0 -.71984)">
                <g id="g330">
                  <g id="g332" clip-path="url(#clipPath318)">
                    <g id="g334">
                      <path id="path336" style="fill-rule:evenodd;fill:#147352" d="m80.52 16.32-0.68-2.8c-0.106-0.348-0.094-0.895 0.039-1.641 0.082-0.371 0.16-0.719 0.242-1.039-1.867-0.16-4.359-0.465-7.48-0.918-1.922-0.297-3.321-0.442-4.2-0.442l-0.722 0.04-14.278 4.8c-1.414 0.348-3.949 0.973-7.601 1.879-3.305 0.801-5.746 2.106-7.32 3.922 1.335-0.187 3.375-0.75 6.121-1.68 2.132-0.722 4.718-1.816 7.757-3.281 1.762-0.879 3.403-1.293 4.922-1.238 2.614 0.078 4.188 0.133 4.719 0.156 1.121 0.082 1.856 0.242 2.199 0.481 0.321 0.242 0.469 0.707 0.442 1.402-0.133 0.984-0.227 1.812-0.282 2.48-0.265 1.653-0.476 2.946-0.636 3.879-0.27 1.653-0.242 2.68 0.078 3.078 0.535 0.614 1.027 1.414 1.48 2.403l0.719 0.719c0.801 0.375 1.961 0.32 3.481-0.161 0.292-0.347 0.453-0.586 0.48-0.718 0.078-0.536 0.559-2.309 1.441-5.321l1.36-0.961c1.172-0.8 2.371-1.586 3.597-2.359l4.122-2.68z" inkscape:connector-curvature="0"/>
                    </g>
                  </g>
                </g>
              </g>
            </g>
          </g>
        </g>
      </g>
      <g id="g338">
        <g id="g354" mask="url(#mask346)">
          <g id="g366">
            <g id="g368" clip-path="url(#clipPath358)">
              <g id="g370" transform="translate(0 -.71984)">
                <g id="g374">
                  <g id="g376" clip-path="url(#clipPath362)">
                    <g id="g378">
                      <path id="path380" style="fill-rule:evenodd;fill:#147352" d="m105.6 53.121c1.144-0.988 2.117-2.148 2.918-3.48l-0.282-1c-0.183-0.774-0.316-1.453-0.398-2.039-0.051-0.774-0.254-1.297-0.602-1.563-0.398-0.266-1.172-0.371-2.316-0.32-1.602 0.082-4.043 0.121-7.32 0.121-2.774 0-5.403-0.215-7.883-0.641l-1.481 2.121c-1.785 2.106-3.093 3.68-3.918 4.719 1.465-0.504 2.602-1.105 3.399-1.801 1.308-1.117 2.093-1.773 2.359-1.957 0.641-0.426 1.227-0.574 1.762-0.441 1.441 0.348 2.16 0.707 2.16 1.082 0 0.183-0.172 0.664-0.52 1.437-0.32 0.696-0.601 1.243-0.839 1.641-0.215 0.348-0.453 1.148-0.719 2.398-0.27 1.309-0.336 2.149-0.203 2.524 0.185 0.531 0.279 2.223 0.279 5.078-0.055 1.145-0.078 1.961-0.078 2.441-0.027 0.852 0.039 1.278 0.199 1.278 0.078 0 0.547 0.015 1.399 0.043 0.96 0 1.812-0.043 2.558-0.121l0.32-0.2 0.243-3.043 1.48-2.679c0.184-0.453 1.652-1.614 4.399-3.481l0.878-0.519c0.747-0.453 1.481-0.985 2.204-1.598z" inkscape:connector-curvature="0"/>
                    </g>
                  </g>
                </g>
              </g>
            </g>
          </g>
        </g>
      </g>
      <path id="path382" style="fill-rule:evenodd;fill:#d1fff1" d="m70.16 26.202-1.64-1.402c-0.161-0.16-0.907-0.266-2.239-0.321-1.359-0.05-2.176 0.016-2.441 0.2-0.481 0.375-1.399 0.894-2.762 1.562-1.84 0.879-3.531 1.492-5.078 1.84-1.625 0.426-2.574 0.68-2.84 0.758-0.265 0.054-0.719 0-1.359-0.16-0.266-0.079-0.989-0.344-2.16-0.797-0.934-0.375-1.946-0.641-3.039-0.801-1.79-0.266-2.707-0.402-2.762-0.402-0.559-0.133-1.371-0.465-2.442-1l-0.757-0.438c0.347 0.426 0.679 0.879 1 1.359l0.359 0.602 4.238 1.477c0.641 0.562 1.336 1.16 2.082 1.8 1.465 1.254 2.426 2.028 2.879 2.321 0.266 0.187 1.602 0.039 4-0.442 2.348-0.453 3.762-0.437 4.242 0.043 0.293 0.293 1.239 0.227 2.84-0.199 0.824-0.215 1.614-0.457 2.36-0.723l0.359-0.437c0.32-0.375 0.734-0.723 1.238-1.043 1.282-0.852 2.043-1.371 2.282-1.559 0.906-0.668 1.402-1.172 1.48-1.519l0.16-0.719z" inkscape:connector-curvature="0"/>
      <path id="path384" style="fill-rule:evenodd;fill:#d1fff1" d="m58.359 63.202-5.961-0.523c-2 0.535-3.863 0.933-5.597 1.203-1.094 0.16-2.586 0.277-4.481 0.359l-2.519 0.039 0.597-1c0.403-0.668 2.204-1.465 5.403-2.398-2 0.133-4.469 0.199-7.403 0.199-1.277 0-2.425-0.066-3.437-0.199l0.078 1c0.906 0.531 1.84 1.465 2.801 2.797 0.613 0.828 1.558 1.562 2.84 2.203 0.64 0.32 1.215 0.558 1.718 0.718l3.321-1.082c2.48-0.746 4.386-1.144 5.722-1.199 2.133-0.078 3.957-0.344 5.481-0.801l1.437-1.316z" inkscape:connector-curvature="0"/>
    </g>
  </g>
<metadata><rdf:RDF><cc:Work><dc:format>image/svg+xml</dc:format><dc:type rdf:resource="http://purl.org/dc/dcmitype/StillImage"/><cc:license rdf:resource="http://creativecommons.org/licenses/publicdomain/"/><dc:publisher><cc:Agent rdf:about="http://openclipart.org/"><dc:title>Openclipart</dc:title></cc:Agent></dc:publisher></cc:Work><cc:License rdf:about="http://creativecommons.org/licenses/publicdomain/"><cc:permits rdf:resource="http://creativecommons.org/ns#Reproduction"/><cc:permits rdf:resource="http://creativecommons.org/ns#Distribution"/><cc:permits rdf:resource="http://creativecommons.org/ns#DerivativeWorks"/></cc:License></rdf:RDF></metadata></svg>
